<?xml version="1.0" encoding="UTF-8"?>
<svg xmlns="http://www.w3.org/2000/svg" xmlns:xlink="http://www.w3.org/1999/xlink" width="82px" height="135px" viewBox="0 0 82 134" version="1.1">
<g id="surface1">
<path style="fill-rule:evenodd;fill:rgb(85.490196%,85.490196%,85.882353%);fill-opacity:1;stroke-width:10;stroke-linecap:butt;stroke-linejoin:round;stroke:rgb(0%,0%,0%);stroke-opacity:1;stroke-miterlimit:4;" d="M 130.585897 19.216986 C 131.434415 19.216623 283.207838 268.51497 283.207838 268.51497 C 283.207838 268.51497 237.416782 294.80318 238.2653 294.802817 C 239.110542 294.788219 112.784041 100.639533 130.585897 19.216986 Z M 130.585897 19.216986 " transform="matrix(-0.26238,0.0599585,0.0603651,0.260612,90.790634,-10.982444)"/>
<path style="fill-rule:evenodd;fill:rgb(24.705882%,24.705882%,24.705882%);fill-opacity:1;stroke-width:10;stroke-linecap:butt;stroke-linejoin:bevel;stroke:rgb(0%,0%,0%);stroke-opacity:1;stroke-miterlimit:4;" d="M 267.371378 300.284795 C 267.371378 300.284795 221.973618 419.332888 230.374162 437.02212 C 229.996936 447.787573 196.568863 496.473131 174.965391 496.940559 C 156.307188 498.123736 95.022388 483.45818 104.859295 423.18917 C 116.538808 361.196519 166.796986 382.683604 186.688431 380.346463 C 206.565366 378.02393 240.341648 301.190437 216.895569 284.786632 C 243.054777 291.666589 266.703977 302.052257 267.371378 300.284795 Z M 177.997712 388.453419 C 110.213009 370.588902 97.039099 476.928794 157.40985 483.15143 C 225.122009 486.029034 224.556169 396.034519 177.997712 388.453419 Z M 177.997712 388.453419 " transform="matrix(0.269235,0,0,0.267421,-26.259114,-0.310216)"/>
<path style="fill-rule:evenodd;fill:rgb(85.490196%,85.490196%,85.882353%);fill-opacity:1;stroke-width:10;stroke-linecap:butt;stroke-linejoin:bevel;stroke:rgb(0%,0%,0%);stroke-opacity:1;stroke-miterlimit:4;" d="M 130.580784 19.235419 C 131.434865 19.232077 283.209248 268.515791 283.209248 268.515791 C 283.209248 268.515791 237.421174 294.792636 238.263524 294.806214 C 239.117605 294.802872 112.766199 100.628432 130.580784 19.235419 Z M 130.580784 19.235419 " transform="matrix(0.265086,0.0467666,-0.0470837,0.2633,-15.146993,-9.769156)"/>
<path style="fill:none;stroke-width:6.25;stroke-linecap:butt;stroke-linejoin:miter;stroke:rgb(0%,0%,0%);stroke-opacity:1;stroke-miterlimit:4;" d="M 81.406847 200.682091 C 66.129173 201.543911 63.590149 225.265887 81.406847 226.127707 C 98.353023 225.265887 98.353023 200.682091 81.406847 200.682091 Z M 81.406847 200.682091 " transform="matrix(0.269235,0,0,0.267421,17.246507,14.977964)"/>
<path style="fill:none;stroke-width:6.25;stroke-linecap:butt;stroke-linejoin:miter;stroke:rgb(0%,0%,0%);stroke-opacity:1;stroke-miterlimit:4;" d="M 69.524212 209.154225 C 71.221731 209.154225 86.484896 224.433281 86.484896 224.433281 " transform="matrix(0.269235,0,0,0.267421,17.246507,14.977964)"/>
<path style="fill:none;stroke-width:6.25;stroke-linecap:butt;stroke-linejoin:miter;stroke:rgb(0%,0%,0%);stroke-opacity:1;stroke-miterlimit:4;" d="M 76.314289 203.238338 C 77.155794 203.238338 92.433468 218.48818 92.433468 218.48818 " transform="matrix(0.269235,0,0,0.267421,17.246507,14.977964)"/>
<path style=" stroke:none;fill-rule:evenodd;fill:rgb(90.196078%,100%,100%);fill-opacity:0.74902;" d="M 57.636719 5.382812 C 57.863281 5.382812 41.195312 55.265625 41.195312 55.265625 C 41.195312 55.265625 42.984375 58.691406 43.667969 58.460938 C 44.351562 58.234375 59.460938 7.878906 57.636719 5.382812 Z M 57.636719 5.382812 "/>
<path style=" stroke:none;fill-rule:evenodd;fill:rgb(0%,0%,0%);fill-opacity:0.317647;" d="M 36.5 70.761719 L 37.453125 69.441406 L 41.828125 73.59375 L 40.761719 74.691406 Z M 36.5 70.761719 "/>
<path style="fill-rule:evenodd;fill:rgb(24.705882%,24.705882%,25.098039%);fill-opacity:1;stroke-width:10;stroke-linecap:butt;stroke-linejoin:bevel;stroke:rgb(0%,0%,0%);stroke-opacity:1;stroke-miterlimit:4;" d="M 319.254532 379.543071 C 386.052642 358.275093 404.580268 463.811593 344.572235 473.072512 C 277.121233 479.353577 273.160354 389.446704 319.254532 379.543071 Z M 225.571779 295.975692 C 225.571779 295.975692 276.903602 412.569788 269.402598 430.668019 C 270.316647 441.418866 306.138657 488.351568 327.756637 487.738068 C 346.443859 487.957175 406.901662 470.224122 394.07596 410.539397 C 379.262565 349.218674 330.150575 373.203578 310.186587 371.874329 C 290.208091 370.54508 252.616018 295.508264 275.206083 277.950496 C 249.409593 286.145095 226.311723 297.71394 225.571779 295.975692 Z M 225.571779 295.975692 " transform="matrix(0.269235,0,0,0.267421,-26.259114,-0.310216)"/>
</g>
</svg>
